<svg width="32" height="32" viewBox="0 0 32 32" fill="none" xmlns="http://www.w3.org/2000/svg">
<path d="M29.0013 7.33333V6C29.0013 4.12133 27.88 3 26.0013 3H24.668C22.9066 3 21.8239 3.99467 21.6933 5.66667H10.3079C10.1786 3.99467 9.09467 3 7.33333 3H6C4.12133 3 3 4.12133 3 6V7.33333C3 9.09467 3.99467 10.1773 5.66667 10.3067V21.692C3.99467 21.8214 3 22.904 3 24.6653V25.9987C3 27.8773 4.12133 28.9987 6 28.9987H7.33333C9.09467 28.9987 10.1773 28.004 10.3079 26.332H21.6933C21.8226 28.004 22.9066 28.9987 24.668 28.9987H26.0013C27.88 28.9987 29.0013 27.8773 29.0013 25.9987V24.6653C29.0013 22.904 28.0066 21.8214 26.3346 21.692V10.3067C28.0066 10.1773 29.0013 9.09467 29.0013 7.33333ZM23.668 6C23.668 5.21467 23.8826 5 24.668 5H26.0013C26.7866 5 27.0013 5.21467 27.0013 6V7.33333C27.0013 8.11867 26.7866 8.33333 26.0013 8.33333H24.668C23.8826 8.33333 23.668 8.11867 23.668 7.33333V6ZM21.6933 24.3333H10.3079C10.1866 22.7733 9.228 21.8133 7.66667 21.6933V10.308C9.22667 10.1867 10.1866 9.22801 10.3079 7.66801H21.6933C21.8146 9.22801 22.7733 10.188 24.3346 10.308V21.6933C22.7746 21.8133 21.8146 22.7733 21.6933 24.3333ZM5.0013 7.33333V6C5.0013 5.21467 5.21597 5 6.0013 5H7.33464C8.11997 5 8.33464 5.21467 8.33464 6V7.33333C8.33464 8.11867 8.11997 8.33333 7.33464 8.33333H6.0013C5.21597 8.33333 5.0013 8.11867 5.0013 7.33333ZM8.33464 26C8.33464 26.7853 8.11997 27 7.33464 27H6.0013C5.21597 27 5.0013 26.7853 5.0013 26V24.6667C5.0013 23.8813 5.21597 23.6667 6.0013 23.6667H7.33464C8.11997 23.6667 8.33464 23.8813 8.33464 24.6667V26ZM27.0013 24.6667V26C27.0013 26.7853 26.7866 27 26.0013 27H24.668C23.8826 27 23.668 26.7853 23.668 26V24.6667C23.668 23.8813 23.8826 23.6667 24.668 23.6667H26.0013C26.7866 23.6667 27.0013 23.8813 27.0013 24.6667Z" fill="#5238F4"/>
</svg>
