<svg width="32" height="32" viewBox="0 0 32 32" fill="none" xmlns="http://www.w3.org/2000/svg">
<path d="M10.0397 11.3734L5.413 16.0001L10.0397 20.6268C10.4303 21.0174 10.4303 21.6508 10.0397 22.0414C9.845 22.2361 9.589 22.3348 9.333 22.3348C9.077 22.3348 8.821 22.2374 8.62633 22.0414L3.293 16.7081C2.90233 16.3174 2.90233 15.6841 3.293 15.2934L8.62633 9.9601C9.017 9.56943 9.65034 9.56943 10.041 9.9601C10.4303 10.3494 10.4303 10.9841 10.0397 11.3734ZM28.7063 15.2934L23.373 9.9601C22.9823 9.56943 22.349 9.56943 21.9583 9.9601C21.5677 10.3508 21.5677 10.9841 21.9583 11.3748L26.585 16.0014L21.9583 20.6281C21.5677 21.0188 21.5677 21.6521 21.9583 22.0428C22.153 22.2374 22.409 22.3361 22.665 22.3361C22.921 22.3361 23.177 22.2388 23.3717 22.0428L28.705 16.7094C29.097 16.3174 29.097 15.6828 28.7063 15.2934ZM20.3503 4.39743C19.8357 4.20143 19.257 4.46543 19.0637 4.98276L11.0637 26.3161C10.869 26.8334 11.1317 27.4094 11.649 27.6041C11.7637 27.6481 11.8837 27.6681 11.9997 27.6681C12.405 27.6681 12.785 27.4201 12.9357 27.0188L20.9357 5.68544C21.1303 5.16677 20.8677 4.59077 20.3503 4.39743Z" fill="#5238F4"/>
</svg>
