<svg width="32" height="32" viewBox="0 0 32 32" fill="none" xmlns="http://www.w3.org/2000/svg">
<path d="M27.3333 12.3333C28.988 12.3333 30.3333 10.988 30.3333 9.33329C30.3333 7.67863 28.988 6.33329 27.3333 6.33329C26.032 6.33329 24.932 7.17196 24.5173 8.33329H19.6399C19.5106 6.66129 18.4267 5.66663 16.6653 5.66663H15.332C13.5707 5.66663 12.488 6.66129 12.3573 8.33329H7.47994C7.06527 7.17196 5.96661 6.33329 4.66394 6.33329C3.00927 6.33329 1.66394 7.67863 1.66394 9.33329C1.66394 10.988 3.00927 12.3333 4.66394 12.3333C5.96527 12.3333 7.06527 11.4946 7.47994 10.3333H9.60526C7.2746 12.1466 5.91998 15.1439 5.72131 19.0213C4.01598 19.1306 2.99866 20.2186 2.99866 22V23.3333C2.99866 25.212 4.11999 26.3333 5.99866 26.3333H7.33199C9.21066 26.3333 10.332 25.212 10.332 23.3333V22C10.332 20.2493 9.34792 19.1693 7.69592 19.028C7.85326 16.2586 8.77862 12.4319 12.4586 10.9573C12.788 12.2466 13.804 13 15.332 13H16.6653C18.1947 13 19.2093 12.2479 19.5386 10.9573C23.2186 12.4319 24.144 16.2586 24.3013 19.028C22.648 19.168 21.6653 20.2493 21.6653 22V23.3333C21.6653 25.212 22.7867 26.3333 24.6653 26.3333H25.9987C27.8773 26.3333 28.9987 25.212 28.9987 23.3333V22C28.9987 20.2186 27.9813 19.1306 26.2759 19.0213C26.0773 15.1439 24.7226 12.1466 22.392 10.3333H24.5173C24.932 11.4946 26.032 12.3333 27.3333 12.3333ZM8.33329 22V23.3333C8.33329 24.1186 8.11863 24.3333 7.33329 24.3333H5.99996C5.21463 24.3333 4.99996 24.1186 4.99996 23.3333V22C4.99996 21.2146 5.21463 21 5.99996 21H7.33329C8.11863 21 8.33329 21.2146 8.33329 22ZM27 22V23.3333C27 24.1186 26.7853 24.3333 26 24.3333H24.6666C23.8813 24.3333 23.6666 24.1186 23.6666 23.3333V22C23.6666 21.2146 23.8813 21 24.6666 21H26C26.7853 21 27 21.2146 27 22ZM27.3333 8.33329C27.8853 8.33329 28.3333 8.78129 28.3333 9.33329C28.3333 9.88529 27.8853 10.3333 27.3333 10.3333C26.7813 10.3333 26.3333 9.88529 26.3333 9.33329C26.3333 8.78129 26.7813 8.33329 27.3333 8.33329ZM4.66663 10.3333C4.11463 10.3333 3.66663 9.88529 3.66663 9.33329C3.66663 8.78129 4.11463 8.33329 4.66663 8.33329C5.21863 8.33329 5.66663 8.78129 5.66663 9.33329C5.66663 9.88529 5.21863 10.3333 4.66663 10.3333ZM17.6666 9.99996C17.6666 10.7853 17.452 11 16.6666 11H15.3333C14.548 11 14.3333 10.7853 14.3333 9.99996V8.66663C14.3333 7.88129 14.548 7.66663 15.3333 7.66663H16.6666C17.452 7.66663 17.6666 7.88129 17.6666 8.66663V9.99996Z" fill="#5238F4"/>
</svg>
