<svg width="32" height="32" viewBox="0 0 32 32" fill="none" xmlns="http://www.w3.org/2000/svg">
<path d="M27.5892 16.3827C27.5385 16.5053 27.4654 16.6159 27.3734 16.7079L22.04 22.0412C21.8454 22.2359 21.5893 22.3345 21.3333 22.3345C21.0773 22.3345 20.8213 22.2372 20.6266 22.0412C20.2359 21.6505 20.2359 21.0172 20.6266 20.6265L24.2532 16.9999H5.33331C4.78131 16.9999 4.33331 16.5519 4.33331 15.9999C4.33331 15.4479 4.78131 14.9999 5.33331 14.9999H24.2519L20.6253 11.3732C20.2346 10.9826 20.2346 10.3492 20.6253 9.95853C21.016 9.56786 21.6494 9.56786 22.04 9.95853L27.3734 15.2919C27.4654 15.3839 27.5385 15.4944 27.5892 15.6171C27.6905 15.8624 27.6905 16.1373 27.5892 16.3827Z" fill="#5238F4"/>
</svg>
