<svg width="22" height="23" viewBox="0 0 22 23" fill="none" xmlns="http://www.w3.org/2000/svg">
<path d="M15.212 10.25H7.21204C6.79804 10.25 6.46204 9.914 6.46204 9.5C6.46204 9.086 6.79804 8.75 7.21204 8.75H15.212C15.626 8.75 15.962 9.086 15.962 9.5C15.962 9.914 15.626 10.25 15.212 10.25ZM15.962 13.5C15.962 13.086 15.626 12.75 15.212 12.75H7.21204C6.79804 12.75 6.46204 13.086 6.46204 13.5C6.46204 13.914 6.79804 14.25 7.21204 14.25H15.212C15.626 14.25 15.962 13.914 15.962 13.5ZM21.962 11.5C21.962 5.572 17.14 0.75 11.212 0.75C5.28404 0.75 0.462036 5.572 0.462036 11.5C0.462036 17.428 5.28404 22.25 11.212 22.25C17.14 22.25 21.962 17.428 21.962 11.5ZM20.462 11.5C20.462 16.601 16.313 20.75 11.212 20.75C6.11104 20.75 1.96204 16.601 1.96204 11.5C1.96204 6.399 6.11104 2.25 11.212 2.25C16.313 2.25 20.462 6.399 20.462 11.5Z" fill="#D3FF39"/>
</svg>
