<svg width="22" height="23" viewBox="0 0 22 23" fill="none" xmlns="http://www.w3.org/2000/svg">
<path d="M15 10.25H7C6.586 10.25 6.25 9.914 6.25 9.5C6.25 9.086 6.586 8.75 7 8.75H15C15.414 8.75 15.75 9.086 15.75 9.5C15.75 9.914 15.414 10.25 15 10.25ZM15.75 13.5C15.75 13.086 15.414 12.75 15 12.75H7C6.586 12.75 6.25 13.086 6.25 13.5C6.25 13.914 6.586 14.25 7 14.25H15C15.414 14.25 15.75 13.914 15.75 13.5ZM21.75 11.5C21.75 5.572 16.928 0.75 11 0.75C5.072 0.75 0.25 5.572 0.25 11.5C0.25 17.428 5.072 22.25 11 22.25C16.928 22.25 21.75 17.428 21.75 11.5ZM20.25 11.5C20.25 16.601 16.101 20.75 11 20.75C5.899 20.75 1.75 16.601 1.75 11.5C1.75 6.399 5.899 2.25 11 2.25C16.101 2.25 20.25 6.399 20.25 11.5Z" fill="#5238F4"/>
</svg>
