<svg width="36" height="37" viewBox="0 0 36 37" fill="none" xmlns="http://www.w3.org/2000/svg">
<rect y="0.5" width="36" height="36" rx="10" fill="#F2F1FE"/>
<path d="M25.2432 18.7392C25.2116 18.8159 25.1658 18.885 25.1083 18.9425L21.775 22.2758C21.6533 22.3975 21.4933 22.4591 21.3333 22.4591C21.1733 22.4591 21.0133 22.3983 20.8916 22.2758C20.6475 22.0317 20.6475 21.6358 20.8916 21.3916L23.1583 19.125H11.3333C10.9883 19.125 10.7083 18.845 10.7083 18.5C10.7083 18.155 10.9883 17.875 11.3333 17.875H23.1575L20.8908 15.6083C20.6466 15.3642 20.6466 14.9683 20.8908 14.7241C21.135 14.48 21.5308 14.48 21.775 14.7241L25.1083 18.0575C25.1658 18.115 25.2116 18.1841 25.2432 18.2607C25.3066 18.4141 25.3066 18.5859 25.2432 18.7392Z" fill="#5238F4"/>
</svg>
