<svg width="36" height="37" viewBox="0 0 36 37" fill="none" xmlns="http://www.w3.org/2000/svg">
<rect x="36" y="36.5" width="36" height="36" rx="10" transform="rotate(-180 36 36.5)" fill="#F2F1FE"/>
<path d="M10.7568 18.2608C10.7884 18.1841 10.8342 18.115 10.8917 18.0575L14.225 14.7242C14.3467 14.6025 14.5067 14.5409 14.6667 14.5409C14.8267 14.5409 14.9867 14.6017 15.1084 14.7242C15.3525 14.9683 15.3525 15.3642 15.1084 15.6084L12.8417 17.875L24.6667 17.875C25.0117 17.875 25.2917 18.155 25.2917 18.5C25.2917 18.845 25.0117 19.125 24.6667 19.125L12.8426 19.125L15.1092 21.3917C15.3534 21.6358 15.3534 22.0317 15.1092 22.2759C14.865 22.52 14.4692 22.52 14.225 22.2759L10.8917 18.9425C10.8342 18.885 10.7884 18.8159 10.7568 18.7393C10.6934 18.5859 10.6934 18.4141 10.7568 18.2608Z" fill="#5238F4"/>
</svg>
